<svg version="1.1" id="Layer_1" xmlns="http://www.w3.org/2000/svg" xmlns:xlink="http://www.w3.org/1999/xlink" x="0px" y="0px"
	 width="100%" viewBox="0 0 1024 1024" enable-background="new 0 0 1024 1024" xml:space="preserve">
<path fill="#000000" opacity="1.000000" stroke="none" 
	d="
M144.654358,585.999878 
	C144.655594,488.506653 144.640930,391.513428 144.666275,294.520203 
	C144.676834,254.088028 170.653793,219.182587 209.394318,207.473892 
	C217.704346,204.962311 226.166534,203.522980 234.914490,203.589325 
	C252.912170,203.725861 270.911682,203.636795 288.910400,203.611740 
	C294.865692,203.603439 295.600525,202.915604 295.629974,197.075684 
	C295.683746,186.410019 295.581940,175.743408 295.665710,165.078125 
	C295.778320,150.739899 305.591553,137.746918 319.224915,133.705704 
	C340.667389,127.349701 361.889801,142.908035 362.292572,165.407730 
	C362.477509,175.737106 362.327209,186.072388 362.336426,196.404999 
	C362.342834,203.601364 362.348572,203.628891 369.414429,203.629776 
	C437.076355,203.638351 504.738281,203.638428 572.400208,203.637604 
	C600.564880,203.637253 628.729614,203.635605 656.894287,203.619141 
	C663.385193,203.615341 663.630615,203.364487 663.645203,196.856445 
	C663.668396,186.523880 663.213257,176.167404 663.768250,165.864548 
	C664.496094,152.353867 670.159973,141.414337 682.995972,135.463257 
	C702.573730,126.386528 724.270508,137.261703 729.248901,158.468079 
	C730.010986,161.714600 730.400269,164.987701 730.363892,168.352448 
	C730.263000,177.684006 730.330627,187.017410 730.338562,196.350098 
	C730.344666,203.609848 730.349182,203.628265 737.852966,203.632004 
	C754.851807,203.640472 771.854614,203.868103 788.848633,203.579758 
	C835.885437,202.781693 874.673767,237.313019 880.550598,281.684418 
	C880.967407,284.831573 881.338867,287.935577 881.338867,291.094696 
	C881.340149,455.249878 881.347717,619.405029 881.333374,783.560242 
	C881.329834,824.442017 848.885132,862.579712 808.404602,869.349426 
	C800.685730,870.640259 792.921692,871.299744 785.075928,871.298706 
	C602.922119,871.273621 420.768250,871.274292 238.614426,871.312317 
	C207.799210,871.318787 181.950150,860.680786 162.920593,835.857422 
	C150.918701,820.201355 144.751129,802.231934 144.709915,782.483459 
	C144.573578,717.155884 144.656082,651.827820 144.654358,585.999878 
M480.500061,412.321381 
	C388.339111,412.318298 296.178162,412.313568 204.017197,412.315613 
	C197.372772,412.315735 197.346603,412.338684 197.346390,418.988281 
	C197.342529,539.981079 197.324707,660.973816 197.378433,781.966614 
	C197.383896,794.268005 202.774872,804.034302 212.402176,811.584656 
	C220.337463,817.808105 229.505188,818.976624 239.242722,818.971191 
	C386.567108,818.889221 533.891541,818.925293 681.215942,818.914124 
	C718.546143,818.911255 755.880310,819.153564 793.204834,818.672119 
	C812.956299,818.417358 828.635803,801.655151 828.643066,781.952271 
	C828.687683,660.792847 828.644104,539.633423 828.766663,418.474060 
	C828.771606,413.599884 827.203796,411.735718 822.476929,412.294647 
	C821.162170,412.450134 819.813232,412.315643 818.479980,412.315674 
	C706.153320,412.317688 593.826721,412.319824 480.500061,412.321381 
M523.499939,360.659027 
	C622.990356,360.658203 722.480713,360.658783 821.971130,360.653229 
	C828.642578,360.652863 828.663757,360.631226 828.666504,354.044434 
	C828.675110,333.379608 828.738159,312.714447 828.642517,292.050049 
	C828.561157,274.476776 813.042603,257.176819 795.576416,256.548889 
	C775.270874,255.818909 754.919922,256.371613 734.588867,256.306580 
	C731.375854,256.296295 730.285828,257.656616 730.278564,260.847839 
	C730.263916,267.317291 730.856995,273.807343 729.331726,280.245422 
	C725.899170,294.733765 713.853699,305.101837 698.798157,306.271973 
	C685.018616,307.342896 672.239563,299.055878 666.494934,285.654541 
	C663.501160,278.670502 663.585693,271.413605 663.635681,264.084259 
	C663.688660,256.315277 663.636902,256.311035 656.101868,256.310730 
	C560.943665,256.306976 465.785431,256.304047 370.627197,256.304749 
	C369.127960,256.304749 367.628693,256.377075 366.129517,256.372986 
	C363.452332,256.365631 362.236359,257.558105 362.317108,260.348602 
	C362.447174,264.844208 362.420044,269.348419 362.320831,273.845947 
	C361.950439,290.633728 348.890076,304.647400 331.356171,306.132233 
	C317.535034,307.302673 301.636780,299.837952 296.710510,281.225922 
	C295.056305,274.976074 295.630463,268.639008 295.733917,262.347046 
	C295.806732,257.916504 294.555237,256.149384 289.792938,256.211578 
	C271.297668,256.453094 252.797119,256.244263 234.299271,256.340912 
	C213.423935,256.449982 197.377426,272.660187 197.353409,293.537750 
	C197.330582,313.369293 197.344559,333.200897 197.347565,353.032471 
	C197.348709,360.634552 197.355286,360.649628 205.028000,360.650024 
	C310.851959,360.655457 416.675934,360.656464 523.499939,360.659027 
z"/>
<path fill="#000000" opacity="1.000000" stroke="none" 
	d="
M546.332520,704.255981 
	C578.606750,695.235901 592.745789,670.357605 592.851013,645.535217 
	C570.327637,645.535217 547.788025,645.535217 524.658325,645.535217 
	C524.658325,637.660278 524.657043,630.541138 524.658752,623.421997 
	C524.660461,616.090271 524.772095,608.756409 524.619995,601.427917 
	C524.551636,598.130737 525.491699,596.611450 529.098633,596.619751 
	C566.090271,596.705139 603.082214,596.675781 640.074036,596.664307 
	C642.446289,596.663574 644.325134,596.938599 644.334229,600.072388 
	C644.407043,625.185730 645.202637,650.373230 637.846497,674.819702 
	C624.769958,718.276367 594.664978,743.993042 551.328247,752.983337 
	C495.554535,764.553711 446.325714,750.778137 406.713989,708.546936 
	C389.276917,689.956787 379.928375,666.932678 375.045624,642.232727 
	C366.822998,600.637146 371.765747,560.713196 395.172150,524.852295 
	C416.969269,491.457001 447.382935,469.417633 487.558411,462.360779 
	C528.525146,455.164948 566.254395,463.393646 600.699097,486.262970 
	C610.654907,492.873047 619.268616,501.378479 626.630005,512.119995 
	C613.650330,522.631775 600.805176,533.034546 587.758484,543.600586 
	C581.856750,537.354004 576.558411,531.377991 570.072937,526.653381 
	C521.278503,491.107269 446.482910,510.972076 429.454407,578.308472 
	C420.546234,613.534302 425.212921,646.525696 448.465057,675.309875 
	C465.479309,696.372070 487.994537,707.276550 515.351379,707.722351 
	C525.717529,707.891235 535.940857,707.238220 546.332520,704.255981 
z"/>
</svg>