<?xml version="1.0" encoding="UTF-8"?>
<svg version="1.1" xmlns="http://www.w3.org/2000/svg" width="1024" height="1024">
<path d="M0 0 C337.92 0 675.84 0 1024 0 C1024 337.92 1024 675.84 1024 1024 C686.08 1024 348.16 1024 0 1024 C0 686.08 0 348.16 0 0 Z " fill="#FEFEFE" transform="translate(0,0)"/>
<path d="M0 0 C6.17969203 4.8563163 9.54136846 10.62410538 12 18 C12 29.22 12 40.44 12 52 C88.89 52 165.78 52 245 52 C245 40.45 245 28.9 245 17 C250.23978788 6.52042425 254.04389357 0.05433765 264.921875 -4.30859375 C274.07877805 -7.35515736 281.3663449 -6.06511749 290 -2 C297.72851253 2.5454133 302.64973891 8.56806136 305.39575195 17.08618164 C306.7186269 23.4653786 306.30131926 30.07766556 306.1875 36.5625 C306.17242392 38.06313759 306.15874069 39.56378985 306.14648438 41.06445312 C306.11371482 44.70994452 306.06209479 48.35487635 306 52 C306.88710663 51.99111755 307.77421326 51.98223511 308.6882019 51.9730835 C317.12960772 51.8922748 325.57087996 51.83170353 334.01258659 51.79275131 C338.35052125 51.77205104 342.6881311 51.74406347 347.02587891 51.69824219 C351.22753115 51.65414634 355.42887498 51.6307317 359.63074112 51.62049103 C361.21799691 51.613212 362.80523965 51.59900603 364.39236069 51.57707977 C378.67044228 51.38802923 393.84418085 52.73492678 406.5625 59.8125 C407.21613525 60.15869385 407.86977051 60.5048877 408.54321289 60.86157227 C413.80775258 63.72380181 418.5620004 66.95840425 423 71 C423.75667969 71.67675781 424.51335938 72.35351562 425.29296875 73.05078125 C430.98571995 78.41932216 435.1463155 84.21017493 439 91 C439.46277344 91.81339844 439.92554688 92.62679687 440.40234375 93.46484375 C446.18747593 104.31416459 449.15881721 115.8280874 449.13422108 128.09343433 C449.13657331 128.89555339 449.13892554 129.69767244 449.14134905 130.52409813 C449.14801555 133.21674741 449.14758153 135.90934818 449.14717102 138.602005 C449.15047112 140.55022368 449.154197 142.49844167 449.1583125 144.44665879 C449.16832421 149.80462927 449.17204797 155.16258855 449.17470181 160.52056706 C449.17860737 166.29794167 449.18818561 172.07530743 449.19691467 177.85267639 C449.21667296 191.80811017 449.22674494 205.76354466 449.23564246 219.71898893 C449.2400268 226.29318637 449.24539327 232.86738301 449.25063133 239.44157982 C449.26764372 261.30030438 449.28216194 283.15902822 449.28938007 305.01775837 C449.28985483 306.43105176 449.29033071 307.84434514 449.29080774 309.25763853 C449.2911623 310.30891036 449.2911623 310.30891036 449.29152403 311.38142 C449.29272519 314.93209576 449.29394065 318.48277151 449.29516602 322.03344727 C449.29540617 322.73808248 449.29564632 323.4427177 449.29589374 324.16870549 C449.30378154 346.99966353 449.32720254 369.83056953 449.35972196 392.66150485 C449.39406259 416.81530406 449.41373521 440.96907284 449.41702431 465.12289685 C449.41918766 478.28300204 449.42791065 491.44303077 449.45348549 504.60311317 C449.47521977 515.81277984 449.48322948 527.02235146 449.47351871 538.23203681 C449.46898184 543.94753593 449.47082471 549.66283907 449.49028015 555.37831116 C449.50796834 560.62008727 449.50686825 565.86152525 449.49138286 571.10330524 C449.48901535 572.99036483 449.49328533 574.87744818 449.50521151 576.76447157 C449.64680892 600.66704431 443.9756351 622.64017413 427.0625 640.375 C411.75312034 654.66575166 391.24806052 662.17896406 370.40870094 662.13142776 C369.56490708 662.1334804 368.72111321 662.13553303 367.85174984 662.13764787 C365.02335436 662.1433038 362.19500779 662.14186235 359.36660767 662.14044189 C357.31853091 662.14302635 355.27045465 662.14603973 353.22237909 662.1494453 C347.59302869 662.15750934 341.96369105 662.15930454 336.33433557 662.16004276 C330.26318028 662.16189439 324.19203159 662.16944235 318.12088013 662.17617798 C304.15138762 662.19046646 290.18189823 662.1962877 276.21240025 662.20086992 C269.30476548 662.20320763 262.39713154 662.20681051 255.48949742 662.2105653 C231.83049125 662.22340053 208.17148554 662.23411897 184.51247597 662.2375679 C183.02778102 662.23778953 181.54308607 662.23801132 180.05839112 662.23823325 C178.57016426 662.23845389 177.0819374 662.23867437 175.59371054 662.2388947 C172.60820937 662.23933725 169.6227082 662.23978436 166.63720703 662.24023438 C165.5268642 662.24039846 165.5268642 662.24039846 164.3940902 662.24056586 C140.40578276 662.24419445 116.41750557 662.26010716 92.42920971 662.28342474 C67.05054606 662.30804856 41.67189968 662.32174196 16.29322374 662.32293582 C13.50447678 662.32310726 10.71572983 662.32332269 7.92698288 662.32357025 C7.24034563 662.32362602 6.55370839 662.32368179 5.84626395 662.32373925 C-5.18061826 662.32488757 -16.20746931 662.33589109 -27.23434102 662.35045731 C-38.32944314 662.36485959 -49.42451388 662.36778686 -60.51962499 662.36001733 C-66.52470893 662.35611823 -72.52968851 662.35700429 -78.53475952 662.37107468 C-84.04105558 662.38385795 -89.54716936 662.38257728 -95.05346532 662.37048396 C-97.03672349 662.3685346 -99.01999477 662.37156986 -101.00323455 662.38032833 C-126.93632162 662.48752794 -150.40592838 658.19757239 -169.8125 639.6875 C-174.73276951 634.55484476 -178.59393437 629.23104395 -182 623 C-182.46019531 622.17371094 -182.92039063 621.34742188 -183.39453125 620.49609375 C-190.77388272 605.89344961 -191.59136077 589.96612678 -191.50793457 573.94821167 C-191.51255484 571.98891969 -191.51891525 570.0296312 -191.52684355 568.07034981 C-191.54340504 562.73746565 -191.53535106 557.40487107 -191.52289867 552.07198644 C-191.51379619 546.30096261 -191.52784346 540.52998634 -191.53881836 534.75897217 C-191.55655227 523.47428018 -191.55278669 512.18969496 -191.5411678 500.90499888 C-191.53211441 491.73030863 -191.5309177 482.55564818 -191.53526306 473.38095474 C-191.53587599 472.0724919 -191.53648893 470.76402906 -191.53712043 469.41591582 C-191.5383994 466.75737713 -191.53969625 464.09883844 -191.5410108 461.44029976 C-191.55247774 437.25383883 -191.54062455 413.06743171 -191.51964041 388.88097996 C-191.50065582 366.83159229 -191.50236265 344.78229703 -191.52148438 322.73291016 C-191.54293092 297.92024905 -191.55130725 273.10763973 -191.53903532 248.29497063 C-191.53776119 245.64711834 -191.5365037 242.99926604 -191.53526306 240.35141373 C-191.53464596 239.04878663 -191.53402886 237.74615954 -191.53339306 236.4040589 C-191.5299458 227.24415115 -191.53575495 218.08427628 -191.54518127 208.92437363 C-191.55642214 197.7563085 -191.5533171 186.58835577 -191.5320583 175.42030345 C-191.52157671 169.72713418 -191.51737676 164.03415205 -191.53065491 158.34098434 C-191.54264428 153.1213086 -191.53590898 147.90199203 -191.5147447 142.6823485 C-191.5103063 140.80240254 -191.51248205 138.92242572 -191.52224785 137.04249988 C-191.63860643 112.76585291 -184.86552303 92.62606336 -169 74 C-150.23437825 56.76320686 -130.18337698 51.45233892 -105.34765625 51.70703125 C-103.71000055 51.71264456 -102.07233972 51.71690642 -100.43467712 51.71989441 C-96.17845101 51.73120691 -91.92254482 51.76055227 -87.66644287 51.79400635 C-83.30176111 51.82500507 -78.93702634 51.83846262 -74.57226562 51.85351562 C-66.04803223 51.88543891 -57.5240562 51.93646469 -49 52 C-49.01047363 51.16863525 -49.02094727 50.33727051 -49.03173828 49.48071289 C-49.0661057 46.35523529 -49.09103659 43.22985498 -49.10986328 40.10424805 C-49.12470245 38.10263623 -49.15013361 36.10111188 -49.17578125 34.09960938 C-49.24088891 21.1757392 -47.59293245 11.98302654 -38.8125 2.25 C-27.89059608 -8.21782039 -12.11483233 -7.87973128 0 0 Z " fill="#FEFEFE" transform="translate(383,176)"/>
<path d="M0 0 C6.17969203 4.8563163 9.54136846 10.62410538 12 18 C12 29.22 12 40.44 12 52 C88.89 52 165.78 52 245 52 C245 40.45 245 28.9 245 17 C250.23978788 6.52042425 254.04389357 0.05433765 264.921875 -4.30859375 C274.07877805 -7.35515736 281.3663449 -6.06511749 290 -2 C297.72851253 2.5454133 302.64973891 8.56806136 305.39575195 17.08618164 C306.7186269 23.4653786 306.30131926 30.07766556 306.1875 36.5625 C306.17242392 38.06313759 306.15874069 39.56378985 306.14648438 41.06445312 C306.11371482 44.70994452 306.06209479 48.35487635 306 52 C306.88710663 51.99111755 307.77421326 51.98223511 308.6882019 51.9730835 C317.12960772 51.8922748 325.57087996 51.83170353 334.01258659 51.79275131 C338.35052125 51.77205104 342.6881311 51.74406347 347.02587891 51.69824219 C351.22753115 51.65414634 355.42887498 51.6307317 359.63074112 51.62049103 C361.21799691 51.613212 362.80523965 51.59900603 364.39236069 51.57707977 C378.67044228 51.38802923 393.84418085 52.73492678 406.5625 59.8125 C407.21613525 60.15869385 407.86977051 60.5048877 408.54321289 60.86157227 C413.80775258 63.72380181 418.5620004 66.95840425 423 71 C423.75667969 71.67675781 424.51335938 72.35351562 425.29296875 73.05078125 C430.98571995 78.41932216 435.1463155 84.21017493 439 91 C439.46277344 91.81339844 439.92554688 92.62679687 440.40234375 93.46484375 C446.18747593 104.31416459 449.15881721 115.8280874 449.13422108 128.09343433 C449.13657331 128.89555339 449.13892554 129.69767244 449.14134905 130.52409813 C449.14801555 133.21674741 449.14758153 135.90934818 449.14717102 138.602005 C449.15047112 140.55022368 449.154197 142.49844167 449.1583125 144.44665879 C449.16832421 149.80462927 449.17204797 155.16258855 449.17470181 160.52056706 C449.17860737 166.29794167 449.18818561 172.07530743 449.19691467 177.85267639 C449.21667296 191.80811017 449.22674494 205.76354466 449.23564246 219.71898893 C449.2400268 226.29318637 449.24539327 232.86738301 449.25063133 239.44157982 C449.26764372 261.30030438 449.28216194 283.15902822 449.28938007 305.01775837 C449.28985483 306.43105176 449.29033071 307.84434514 449.29080774 309.25763853 C449.2911623 310.30891036 449.2911623 310.30891036 449.29152403 311.38142 C449.29272519 314.93209576 449.29394065 318.48277151 449.29516602 322.03344727 C449.29540617 322.73808248 449.29564632 323.4427177 449.29589374 324.16870549 C449.30378154 346.99966353 449.32720254 369.83056953 449.35972196 392.66150485 C449.39406259 416.81530406 449.41373521 440.96907284 449.41702431 465.12289685 C449.41918766 478.28300204 449.42791065 491.44303077 449.45348549 504.60311317 C449.47521977 515.81277984 449.48322948 527.02235146 449.47351871 538.23203681 C449.46898184 543.94753593 449.47082471 549.66283907 449.49028015 555.37831116 C449.50796834 560.62008727 449.50686825 565.86152525 449.49138286 571.10330524 C449.48901535 572.99036483 449.49328533 574.87744818 449.50521151 576.76447157 C449.64680892 600.66704431 443.9756351 622.64017413 427.0625 640.375 C411.75312034 654.66575166 391.24806052 662.17896406 370.40870094 662.13142776 C369.56490708 662.1334804 368.72111321 662.13553303 367.85174984 662.13764787 C365.02335436 662.1433038 362.19500779 662.14186235 359.36660767 662.14044189 C357.31853091 662.14302635 355.27045465 662.14603973 353.22237909 662.1494453 C347.59302869 662.15750934 341.96369105 662.15930454 336.33433557 662.16004276 C330.26318028 662.16189439 324.19203159 662.16944235 318.12088013 662.17617798 C304.15138762 662.19046646 290.18189823 662.1962877 276.21240025 662.20086992 C269.30476548 662.20320763 262.39713154 662.20681051 255.48949742 662.2105653 C231.83049125 662.22340053 208.17148554 662.23411897 184.51247597 662.2375679 C183.02778102 662.23778953 181.54308607 662.23801132 180.05839112 662.23823325 C178.57016426 662.23845389 177.0819374 662.23867437 175.59371054 662.2388947 C172.60820937 662.23933725 169.6227082 662.23978436 166.63720703 662.24023438 C165.5268642 662.24039846 165.5268642 662.24039846 164.3940902 662.24056586 C140.40578276 662.24419445 116.41750557 662.26010716 92.42920971 662.28342474 C67.05054606 662.30804856 41.67189968 662.32174196 16.29322374 662.32293582 C13.50447678 662.32310726 10.71572983 662.32332269 7.92698288 662.32357025 C7.24034563 662.32362602 6.55370839 662.32368179 5.84626395 662.32373925 C-5.18061826 662.32488757 -16.20746931 662.33589109 -27.23434102 662.35045731 C-38.32944314 662.36485959 -49.42451388 662.36778686 -60.51962499 662.36001733 C-66.52470893 662.35611823 -72.52968851 662.35700429 -78.53475952 662.37107468 C-84.04105558 662.38385795 -89.54716936 662.38257728 -95.05346532 662.37048396 C-97.03672349 662.3685346 -99.01999477 662.37156986 -101.00323455 662.38032833 C-126.93632162 662.48752794 -150.40592838 658.19757239 -169.8125 639.6875 C-174.73276951 634.55484476 -178.59393437 629.23104395 -182 623 C-182.46019531 622.17371094 -182.92039063 621.34742188 -183.39453125 620.49609375 C-190.77388272 605.89344961 -191.59136077 589.96612678 -191.50793457 573.94821167 C-191.51255484 571.98891969 -191.51891525 570.0296312 -191.52684355 568.07034981 C-191.54340504 562.73746565 -191.53535106 557.40487107 -191.52289867 552.07198644 C-191.51379619 546.30096261 -191.52784346 540.52998634 -191.53881836 534.75897217 C-191.55655227 523.47428018 -191.55278669 512.18969496 -191.5411678 500.90499888 C-191.53211441 491.73030863 -191.5309177 482.55564818 -191.53526306 473.38095474 C-191.53587599 472.0724919 -191.53648893 470.76402906 -191.53712043 469.41591582 C-191.5383994 466.75737713 -191.53969625 464.09883844 -191.5410108 461.44029976 C-191.55247774 437.25383883 -191.54062455 413.06743171 -191.51964041 388.88097996 C-191.50065582 366.83159229 -191.50236265 344.78229703 -191.52148438 322.73291016 C-191.54293092 297.92024905 -191.55130725 273.10763973 -191.53903532 248.29497063 C-191.53776119 245.64711834 -191.5365037 242.99926604 -191.53526306 240.35141373 C-191.53464596 239.04878663 -191.53402886 237.74615954 -191.53339306 236.4040589 C-191.5299458 227.24415115 -191.53575495 218.08427628 -191.54518127 208.92437363 C-191.55642214 197.7563085 -191.5533171 186.58835577 -191.5320583 175.42030345 C-191.52157671 169.72713418 -191.51737676 164.03415205 -191.53065491 158.34098434 C-191.54264428 153.1213086 -191.53590898 147.90199203 -191.5147447 142.6823485 C-191.5103063 140.80240254 -191.51248205 138.92242572 -191.52224785 137.04249988 C-191.63860643 112.76585291 -184.86552303 92.62606336 -169 74 C-150.23437825 56.76320686 -130.18337698 51.45233892 -105.34765625 51.70703125 C-103.71000055 51.71264456 -102.07233972 51.71690642 -100.43467712 51.71989441 C-96.17845101 51.73120691 -91.92254482 51.76055227 -87.66644287 51.79400635 C-83.30176111 51.82500507 -78.93702634 51.83846262 -74.57226562 51.85351562 C-66.04803223 51.88543891 -57.5240562 51.93646469 -49 52 C-49.01047363 51.16863525 -49.02094727 50.33727051 -49.03173828 49.48071289 C-49.0661057 46.35523529 -49.09103659 43.22985498 -49.10986328 40.10424805 C-49.12470245 38.10263623 -49.15013361 36.10111188 -49.17578125 34.09960938 C-49.24088891 21.1757392 -47.59293245 11.98302654 -38.8125 2.25 C-27.89059608 -8.21782039 -12.11483233 -7.87973128 0 0 Z M-145 205 C-145.0825 267.803125 -145.165 330.60625 -145.25 395.3125 C-145.28641602 415.15544189 -145.32283203 434.99838379 -145.36035156 455.44262695 C-145.37372786 473.20284132 -145.37372786 473.20284132 -145.3817749 490.96305847 C-145.38550711 498.88428995 -145.40018851 506.80540876 -145.42230225 514.72660828 C-145.44776993 523.86271137 -145.45934229 532.99870629 -145.4537798 542.13484515 C-145.45137085 546.80805125 -145.45518136 551.48101559 -145.47686052 556.15417731 C-145.49636079 560.38339849 -145.49727123 564.6122075 -145.48360443 568.84144783 C-145.48191359 570.36701154 -145.48694036 571.89260137 -145.49953032 573.41811407 C-145.6017084 586.57672415 -143.6529216 596.25618442 -134.29296875 605.90625 C-126.72614339 612.81565101 -117.30995431 615.46928692 -107.23675632 615.38031673 C-105.97965359 615.38730661 -105.97965359 615.38730661 -104.69715485 615.3944377 C-101.90020074 615.40635023 -99.10373577 615.39700677 -96.30677795 615.38768005 C-94.27673261 615.3918546 -92.24668959 615.39733278 -90.2166509 615.40399987 C-84.6466703 615.41845718 -79.07683764 615.4142088 -73.50684893 615.40683305 C-67.4965206 615.40210445 -61.48622441 615.41460849 -55.47590637 615.42485046 C-44.38492787 615.44105567 -33.29398811 615.44348265 -22.20300269 615.43854547 C-11.95597666 615.43398629 -1.70896815 615.43458998 8.53805733 615.44038582 C9.91317964 615.44114269 11.28830196 615.44189867 12.66342427 615.44265376 C14.73566733 615.44379897 16.80791038 615.44494885 18.88015343 615.44611301 C38.14262478 615.45681601 57.4050903 615.46154527 76.66756344 615.45364285 C77.39348436 615.45334567 78.11940528 615.4530485 78.8673238 615.45274232 C84.76212054 615.45029344 90.65691721 615.44768183 96.55171388 615.44505819 C119.54614102 615.43495529 142.54049515 615.44331276 165.53491211 615.46655273 C191.37692955 615.49262854 217.21890304 615.5054725 243.06093413 615.49836498 C245.81666505 615.49764893 248.57239597 615.49697455 251.32812691 615.49632454 C252.00664421 615.49615473 252.68516151 615.49598492 253.38423995 615.49580997 C263.62330755 615.49350771 273.86233431 615.50148042 284.10139275 615.51461601 C295.74633524 615.52952867 307.39119874 615.52999409 319.03614228 615.5125451 C324.9776145 615.50401993 330.91890403 615.50192279 336.86036682 615.51719666 C342.30027742 615.5310081 347.73984819 615.52632596 353.17973895 615.50695742 C355.1466594 615.50318626 357.11360685 615.50615139 359.08050334 615.51656907 C373.3123506 615.58658254 383.08964876 614.62431595 393.80078125 604.3671875 C400.38767369 597.27721091 403.25250662 589.94633977 403.24609566 580.17282963 C403.24840315 579.51955798 403.25071064 578.86628634 403.25308805 578.19321859 C403.25836239 576.01404828 403.24942764 573.83517603 403.24050903 571.65602112 C403.24138443 570.07811921 403.24313926 568.50021758 403.24569702 566.9223175 C403.25017956 562.58449566 403.24216072 558.24677269 403.23214546 553.9089634 C403.22341127 549.16006049 403.22633474 544.41116212 403.2277813 539.66225338 C403.2288446 530.44405072 403.2196101 521.22588703 403.20677864 512.00769439 C403.19238059 501.3449288 403.19078924 490.68218663 403.18920898 480.01940918 C403.17870762 451.86709994 403.1507854 423.71479939 403.125 395.5625 C403.063125 301.2340625 403.063125 301.2340625 403 205 C222.16 205 41.32 205 -145 205 Z " fill="#E41C23" transform="translate(383,176)"/>
<path d="M0 0 C0.78197754 0.16628906 1.56395508 0.33257812 2.36962891 0.50390625 C14.84913826 3.24609752 26.44535401 7.58319838 38 13 C38.67015137 13.31308105 39.34030273 13.62616211 40.03076172 13.94873047 C54.62028218 20.90646946 67.35351366 30.85988263 79 42 C79.6703125 42.61875 80.340625 43.2375 81.03125 43.875 C95.46550511 57.62190963 104.97025013 74.98908768 113 93 C98.60130817 97.88528745 84.13355518 102.49998219 69.59057617 106.93676758 C66.24857253 107.9570158 62.90842442 108.98319073 59.56835938 110.00976562 C57.43760656 110.66180664 55.30675121 111.31351273 53.17578125 111.96484375 C52.18016678 112.27099106 51.18455231 112.57713837 50.1587677 112.89256287 C48.78914131 113.30913902 48.78914131 113.30913902 47.3918457 113.73413086 C46.58914749 113.97949081 45.78644928 114.22485077 44.95942688 114.47764587 C43 115 43 115 41 115 C40.52691406 113.97261719 40.05382812 112.94523438 39.56640625 111.88671875 C29.79227911 91.17810014 15.14328026 78.38787207 -6.15087891 70.16992188 C-28.26926594 62.26731482 -52.88245312 64.09413671 -74.1484375 73.609375 C-83.70638713 78.27051208 -98.96664443 85.93328885 -104 96 C-104.66 96 -105.32 96 -106 96 C-106.24105469 96.52464844 -106.48210937 97.04929687 -106.73046875 97.58984375 C-108.04820844 100.09152186 -109.55633251 102.41759971 -111.12231445 104.76977539 C-126.86896921 128.48827505 -132.23767158 157.37713042 -126.66552734 185.42016602 C-122.75630045 202.14437677 -115.33161046 217.11660849 -104 230 C-102.94039062 231.22589844 -102.94039062 231.22589844 -101.859375 232.4765625 C-89.64597332 245.63989543 -73.08925085 252.64234144 -56 257 C-54.77216797 257.34224609 -54.77216797 257.34224609 -53.51953125 257.69140625 C-30.83142584 263.27556989 -4.83377275 256.94043244 15.0234375 245.828125 C19.30005407 243.2015416 23.17241597 240.23598352 27 237 C27.94875 236.26523437 28.8975 235.53046875 29.875 234.7734375 C33.53638177 231.71604841 36.25223512 228.07921254 39.0625 224.25 C39.56587891 223.58484375 40.06925781 222.9196875 40.58789062 222.234375 C44.26006434 217.29380493 46.9605398 212.47102835 50 207 C21.62 207 -6.76 207 -36 207 C-36 187.2 -36 167.4 -36 147 C17.13 147 70.26 147 125 147 C125.9927859 150.9711436 126.17788578 154.54580883 126.203125 158.59765625 C126.21018463 159.33978363 126.21724426 160.08191101 126.22451782 160.8465271 C126.45373523 192.07424403 126.45373523 192.07424403 123 206 C122.69400879 207.25973633 122.69400879 207.25973633 122.38183594 208.54492188 C119.38363272 220.56391993 115.42270623 231.86786973 110 243 C109.55269531 243.93457031 109.10539062 244.86914062 108.64453125 245.83203125 C90.7252032 280.88244711 58.11267701 307.71764076 20.859375 319.78125 C19.9159021 320.0755188 19.9159021 320.0755188 18.95336914 320.37573242 C17.60100243 320.80792861 16.25662678 321.26564622 14.91967773 321.7434082 C-24.40313588 335.68421611 -73.76867756 329.53293133 -110.80859375 312.0703125 C-121.20451561 307.00923399 -130.85218916 301.09533025 -140 294 C-140.85722656 293.34773438 -141.71445312 292.69546875 -142.59765625 292.0234375 C-155.6836688 281.73193426 -166.95145631 269.97478298 -176 256 C-176.54785156 255.16339844 -177.09570312 254.32679688 -177.66015625 253.46484375 C-195.13321233 225.55454883 -202.4760418 194.95180032 -202.3125 162.25 C-202.31034485 161.46696503 -202.3081897 160.68393005 -202.30596924 159.87716675 C-202.19134874 133.8155804 -197.5194214 109.52981441 -186 86 C-185.70399902 85.37963867 -185.40799805 84.75927734 -185.10302734 84.12011719 C-178.06078641 69.48777864 -168.22610109 56.69049016 -157 45 C-156.18015625 44.14019531 -155.3603125 43.28039062 -154.515625 42.39453125 C-149.95955719 37.7151304 -149.95955719 37.7151304 -148 36 C-147.34 36 -146.68 36 -146 36 C-146 35.34 -146 34.68 -146 34 C-109.104677 -0.84672095 -48.08221818 -10.46295431 0 0 Z " fill="#E51C23" transform="translate(549,420)"/>
<path d="M0 0 C0.33 0 0.66 0 1 0 C1.02578125 0.97839844 1.0515625 1.95679688 1.078125 2.96484375 C1.53230903 13.46268816 3.02048494 21.52898603 10.28515625 29.49609375 C16.79119529 35.20184553 24.25544559 36.35583308 32.63671875 36.28125 C39.66639128 35.69340282 46.3605571 32.3955952 51 27 C57.20347653 18.6558872 57.97278495 11.08317423 58 1 C61.72082666 4.72082666 61.95753658 10.46377579 62.04296875 15.56640625 C61.38094682 25.40436005 57.34583015 33.41457805 50 40 C40.97689136 46.14242024 31.72265706 47.2679542 21 46 C17.2403337 44.84428625 14.22770408 43.22600281 11 41 C9.9275 40.278125 8.855 39.55625 7.75 38.8125 C0.50065867 31.39840091 -2.17817396 24.29038745 -2.1875 14.125 C-2.20586914 13.08279297 -2.20586914 13.08279297 -2.22460938 12.01953125 C-2.23702874 7.62307607 -1.61908407 4.08290765 0 0 Z " fill="#FDF5F5" transform="translate(335,284)"/>
<path d="M0 0 C3.88728257 3.88728257 4.1556962 9.04090561 4.3125 14.3125 C4.09540996 23.63460155 1.48511481 31.20815679 -5 38 C-12.01575937 44.28851602 -18.88832205 47.5852192 -28.3125 47.5 C-29.05943115 47.49355469 -29.8063623 47.48710937 -30.57592773 47.48046875 C-39.30424234 47.19283649 -45.01832665 44.07933435 -51.375 38.1875 C-57.49436158 31.64781864 -60.13190807 24.89470913 -60.1875 16 C-60.20167969 14.96875 -60.21585938 13.9375 -60.23046875 12.875 C-60.00276947 10.03454797 -59.46504061 8.40892052 -58 6 C-57.91363281 6.67804688 -57.82726562 7.35609375 -57.73828125 8.0546875 C-56.21598054 18.13818396 -53.21097035 26.15888624 -45.015625 32.59375 C-37.69064529 37.70420096 -30.81283134 37.89028603 -22 37 C-15.10532676 35.20799242 -8.52847792 31.05017587 -4.71484375 24.94140625 C-1.79920475 19.2459824 -0.77739742 14.19254176 -0.4375 7.8125 C-0.37272461 6.68811523 -0.37272461 6.68811523 -0.30664062 5.54101562 C-0.20077315 3.69421625 -0.0999024 1.84713166 0 0 Z " fill="#FDF5F6" transform="translate(687,283)"/>
<path d="M0 0 C3 1 3 1 5 2 C1.84493858 2.93619813 -0.96586502 3.1057123 -4.25 3.0625 C-5.14203125 3.05347656 -6.0340625 3.04445312 -6.953125 3.03515625 C-7.62859375 3.02355469 -8.3040625 3.01195312 -9 3 C-9.33 2.34 -9.66 1.68 -10 1 C-6.82587823 -0.58706088 -3.46361333 -0.28477127 0 0 Z " fill="#E5282C" transform="translate(662,170)"/>
<path d="M0 0 C0.33 0 0.66 0 1 0 C1 3.96 1 7.92 1 12 C0.01 12.33 -0.98 12.66 -2 13 C-2.19294408 8.17639811 -1.75747614 4.50353262 0 0 Z " fill="#F9C4C6" transform="translate(335,284)"/>
<path d="M0 0 C0.66 0.33 1.32 0.66 2 1 C0.33333333 4.33333333 -1.33333333 7.66666667 -3 11 C-4 8 -4 8 -3.22265625 5.95703125 C-2.83980469 5.24933594 -2.45695313 4.54164063 -2.0625 3.8125 C-1.68222656 3.09707031 -1.30195313 2.38164062 -0.91015625 1.64453125 C-0.60980469 1.10183594 -0.30945313 0.55914062 0 0 Z " fill="#E21719" transform="translate(201,269)"/>
</svg>
